# AST/ASF file generated using VICON BodyLanguage
# -----------------------------------------------
:version 1.10
:name VICON
:units
  mass 1.0
  length 0.45
  angle deg
:documentation
   .ast/.asf automatically generated from VICON data using
   VICON BodyBuilder and BodyLanguage model FoxedUp or BRILLIANT.MOD
:root
   order TX TY TZ RX RY RZ
   axis XYZ
   position 0 0 0  
   orientation 0 0 0 
:bonedata
  begin
     id 1 
     name lhipjoint
     direction 0.578396 -0.714046 0.394458 
     length 2.21935 
     axis 0 0 0  XYZ
  end
  begin
     id 2 
     name lfemur
     direction 0.34202 -0.939693 0  
     length 6.39105  
     axis 0 0 20  XYZ
    dof rx ry rz
    limits (-160.0 20.0)
           (-70.0 70.0)
           (-60.0 70.0)
  end
  begin
     id 3 
     name ltibia
     direction 0.34202 -0.939693 0   
     length 6.99037   
     axis 0 0 20   XYZ
    dof rx
    limits (-10.0 170.0)
  end
  begin
     id 4 
     name lfoot
     direction 0.0582372 -0.160005 0.985397   
     length 2.06111   
     axis -90 7.62852e-016 20   XYZ
    dof rx rz
    limits (-45.0 90.0)
           (-70.0 20.0)
  end
  begin
     id 5 
     name ltoes
     direction 1.53556e-011 -4.21875e-011 1   
     length 1.04074   
     axis -90 7.62852e-016 20   XYZ
    dof rx
    limits (-90.0 20.0)
  end
  begin
     id 6 
     name rhipjoint
     direction -0.558179 -0.726269 0.40121   
     length 2.182  
     axis 0 0 0  XYZ 
  end
  begin
     id 7 
     name rfemur
     direction -0.34202 -0.939693 0   
     length 6.51172   
     axis 0 0 -20   XYZ
    dof rx ry rz
    limits (-160.0 20.0)
           (-70.0 70.0)
           (-70.0 60.0)
  end
  begin
     id 8 
     name rtibia
     direction -0.34202 -0.939693 0   
     length 7.02607   
     axis 0 0 -20   XYZ
    dof rx
    limits (-10.0 170.0)
 end
 begin
     id 9 
     name rfoot
     direction -0.0788856 -0.216737 0.973038   
     length 1.96734  
     axis -90 -7.62852e-016 -20   XYZ
    dof rx rz
    limits (-45.0 90.0)
           (-20.0 70.0)
  end
  begin
     id 10 
     name rtoes
     direction -1.53567e-011 -4.21783e-011 1   
     length 0.990825   
     axis -90 -7.62852e-016 -20   XYZ
    dof rx
    limits (-90.0 20.0)
  end
  begin
     id 11 
     name lowerback
     direction 0.00668177 0.999323 -0.0361741   
     length 1.7655   
     axis 0 0 0   XYZ
    dof rx ry rz
    limits (-20.0 45.0)
           (-30.0 30.0)
           (-30.0 30.0)
  end
  begin
     id 12 
     name upperback
     direction -0.00222086 0.99851 0.0545167   
     length 1.74912   
     axis 0 0 0   XYZ
    dof rx ry rz
    limits (-20.0 45.0)
           (-30.0 30.0)
           (-30.0 30.0)
  end
  begin
     id 13 
     name thorax
     direction -0.00733971 0.997496 0.0703443   
     length 1.75715   
     axis 0 0 0   XYZ
    dof rx ry rz
    limits (-20.0 45.0)
           (-30.0 30.0)
           (-30.0 30.0)
  end
  begin
     id 14 
     name lowerneck
     direction 0.0279797 0.994795 0.0979765   
     length 1.46939   
     axis 0 0 0   XYZ
    dof rx ry rz
    limits (-20.0 45.0)
           (-30.0 30.0)
           (-30.0 30.0)
  end
  begin
     id 15 
     name upperneck
     direction 0.00339187 0.976776 -0.214238   
     length 1.48018   
     axis 0 0 0   XYZ
    dof rx ry rz
    limits (-20.0 45.0)
           (-30.0 30.0)
           (-30.0 30.0)
  end
  begin
     id 16
     name head
     direction -0.00263506 0.996603 -0.0823096  
     length 1.4976  
     axis 0 0 0   XYZ
    dof rx ry rz
    limits (-20.0 45.0)
           (-30.0 30.0)
           (-30.0 30.0)
  end
  begin
     id 17 
     name lclavicle
     direction 0.894044 0.44508 -0.0508781  
     length 3.03024  
     axis 0 0 0   XYZ
    dof ry rz
    limits (-20.0 10.0)
           (0.0 20.0)
  end
  begin
     id 18 
     name lhumerus
     direction 1 -4.48961e-011 -2.39475e-018   
     length 4.4661   
     axis 180 -30 -90   XYZ
    dof rx ry rz
    limits (-60.0 90.0)
           (-90.0 90.0)
           (-90.0 90.0)
  end
  begin
     id 19
     name lradius
     direction 1 -4.48961e-011 9.29328e-028   
     length 3.41414   
     axis 180 -30 -90   XYZ
    dof rx
    limits (-10.0 170.0)
  end
  begin
     id 20
     name lwrist
     direction 1 -4.48985e-011 1.53461e-026   
     length 1.70707   
     axis -1.09697e-014 90 90   XYZ
    dof ry
    limits (-180.0 0.0)
 end
  begin
     id 21 
     name lhand
     direction 1 -4.48966e-011 3.06923e-026   
     length 0.328298   
     axis -1.95843e-014 90 90   XYZ
    dof rx rz
    limits (-90.0 90.0)
           (-45.0 45.0)
  end
  begin
     id 22 
     name lfingers
     direction 1 -4.48893e-011 6.13845e-026   
     length 0.264682   
     axis -3.91686e-014 90 90   XYZ
    dof rx
    limits (0.0 90.0)
  end
  begin
     id 23
     name lthumb
     direction 0.707107 -6.34876e-011 0.707107   
     length 0.380032   
     axis -90 45 2.85299e-015   XYZ
    dof rx rz
    limits (-45.0 45.0)
           (-45.0 45.0)
  end
  begin
     id 24 
     name rclavicle
     direction -0.936955 0.347862 -0.0332887   
     length 3.26927  
     axis 0 0 0   XYZ 
    dof ry rz
    limits (-10.0 20.0)
           (-20.0 0.0)
  end
  begin
     id 25 
     name rhumerus
     direction -1 -4.4896e-011 1.78637e-018  
     length 4.40431   
     axis 180 30 90   XYZ
    dof rx ry rz
    limits (-90.0 60.0)
           (-90.0 90.0)
           (-90.0 90.0)
  end
  begin
     id 26 
     name rradius
     direction -1 -4.48955e-011 9.34036e-027   
     length 3.04688   
     axis 180 30 90   XYZ
    dof rx
    limits (-10.0 170.0)
  end
  begin
     id 27 
     name rwrist
     direction -1 -4.49011e-011 1.53461e-026   
     length 1.52344   
     axis -1.09697e-014 -90 -90   XYZ
    dof ry
    limits (-180.0 0.0)
  end
  begin
     id 28
     name rhand
     direction -1 -4.48834e-011 3.06923e-026   
     length 0.500489   
     axis -1.95843e-014 -90 -90   XYZ
    dof rx rz
    limits (-90.0 90.0)
           (-45.0 45.0)
  end
  begin
     id 29
     name rfingers
     direction -1 -4.48967e-011 6.13845e-026   
     length 0.403507   
     axis -3.91686e-014 -90 -90   XYZ
    dof rx
    limits (0.0 90.0)
  end
  begin
     id 30
     name rthumb
     direction -0.707107 -6.34826e-011 0.707107   
     length 0.579358   
     axis -90 -45 -2.85299e-015   XYZ
    dof rx rz
    limits (-45.0 45.0)
           (-45.0 45.0)
  end
:hierarchy
  begin
    root lhipjoint rhipjoint lowerback
    lhipjoint lfemur
    lfemur ltibia
    ltibia lfoot
    lfoot ltoes
    rhipjoint rfemur
    rfemur rtibia
    rtibia rfoot
    rfoot rtoes
    lowerback upperback
    upperback thorax
    thorax lowerneck lclavicle rclavicle
    lowerneck upperneck
    upperneck head
    lclavicle lhumerus
    lhumerus lradius
    lradius lwrist
    lwrist lhand lthumb
    lhand lfingers
    rclavicle rhumerus
    rhumerus rradius
    rradius rwrist
    rwrist rhand rthumb
    rhand rfingers
  end

#!OML:ASF H:\IndianDance\Patient Classification 1\Patient 1\Session 1\dancer.ASF
:FULLY-SPECIFIED
:DEGREES
1802
root -27.4738 14.7821 6.74174 -174.927 3.38817 -179.205
lowerback 6.07946 1.86211 -2.70395
upperback -8.65535 2.71998 -0.525712
thorax -12.9127 1.75761 0.417641
lowerneck -13.8682 8.95206 5.43624
upperneck 6.12629 11.0169 -0.769421
head 4.38863 5.49315 -0.215168
rclavicle -1.19271e-014 7.95139e-016
rhumerus 29.8027 3.89055 -1.03562
rradius 90.6359
rwrist -15.428
rhand -35.4239 31.8001
rfingers 7.12502
rthumb -8.55386 1.99337
lclavicle -1.19271e-014 7.95139e-016
lhumerus 39.2825 4.26465 0.0529105
lradius 94.7973
lwrist 28.4752
lhand -28.9898 -1.51489
lfingers 7.12502
lthumb -2.34187 28.452
rfemur -44.1628 -23.5844 4.9244
rtibia 73.6082
rfoot 7.87422 -5.7069
rtoes 12.2878
lfemur 162.015 155.904 174.772
ltibia 42.9116
lfoot -11.357 9.06864
ltoes -17.2675
1803
root -27.3309 14.8597 6.69997 -174.778 3.33217 -179.116
lowerback 5.74052 1.80575 -2.74484
upperback -8.76525 2.67316 -0.55086
thorax -12.8285 1.75068 0.429919
lowerneck -13.996 9.18876 5.57119
upperneck 6.14486 11.3179 -0.933311
head 4.43945 5.63277 -0.251007
rclavicle -1.66979e-014 3.18055e-015
rhumerus 30.37 2.06063 -0.677478
rradius 89.0245
rwrist -17.1922
rhand -34.7431 30.8385
rfingers 7.12502
rthumb -7.89686 1.00599
lclavicle -1.66979e-014 3.18055e-015
lhumerus 40.1694 5.84137 0.0149501
lradius 92.2858
lwrist 31.6344
lhand -28.2469 -0.45477
lfingers 7.12502
lthumb -1.62437 29.5188
rfemur -42.9844 -22.645 4.75328
rtibia 71.0182
rfoot 9.75995 -5.7316
rtoes 11.9124
lfemur 162.576 156.439 175.28
ltibia 41.6635
lfoot -9.58954 9.40143
ltoes -16.1479
1804
root -27.1827 14.9331 6.65814 -174.609 3.23612 -179.014
lowerback 5.36731 1.73913 -2.81269
upperback -8.87205 2.6116 -0.582176
thorax -12.7198 1.73946 0.454156
lowerneck -14.1611 9.4149 5.71227
upperneck 6.20827 11.5953 -1.03987
head 4.50712 5.76416 -0.268895
rclavicle 2.16675e-014 -3.97569e-016
rhumerus 30.8622 0.356159 -0.382272
rradius 87.4007
rwrist -19.0261
rhand -34.1446 29.8669
rfingers 7.12502
rthumb -7.31919 0.0135301
lclavicle 2.16675e-014 -3.97569e-016
lhumerus 41.0631 7.26701 0.0235855
lradius 89.833
lwrist 34.8118
lhand -27.298 0.677814
lfingers 7.12502
lthumb -0.707903 30.6564
rfemur -41.7776 -21.7145 4.69451
rtibia 68.3479
rfoot 11.6401 -5.39508
rtoes 11.3346
lfemur 162.943 156.882 175.763
ltibia 40.6325
lfoot -7.7462 9.8012
ltoes -14.7356
1805
root -27.0295 15.0009 6.61699 -174.425 3.0984 -178.906
lowerback 4.97138 1.66083 -2.91335
upperback -8.97735 2.53283 -0.619155
thorax -12.5961 1.72333 0.493718
lowerneck -14.3305 9.63714 5.87743
upperneck 6.29747 11.8588 -1.11028
head 4.5829 5.89154 -0.278902
rclavicle -2.3556e-014 2.38542e-015
rhumerus 31.2861 -1.22509 -0.128874
rradius 85.7863
rwrist -20.9843
rhand -33.6537 28.8934
rfingers 7.12502
rthumb -6.84525 -0.975973
lclavicle -2.3556e-014 2.38542e-015
lhumerus 41.9548 8.56424 0.0871692
lradius 87.4742
lwrist 37.9595
lhand -26.2309 1.92101
lfingers 7.12502
lthumb 0.322699 31.9005
rfemur -40.5458 -20.7882 4.73937
rtibia 65.7363
rfoot 13.3013 -4.7399
rtoes 10.411
lfemur 163.098 157.208 176.208
ltibia 39.8506
lfoot -5.86789 10.265
ltoes -12.9984
1806
root -26.872 15.0625 6.57717 -174.233 2.91466 -178.796
lowerback 4.56586 1.57171 -3.04956
upperback -9.07885 2.43703 -0.664013
thorax -12.4627 1.70215 0.546968
lowerneck -14.4991 9.84964 6.06084
upperneck 6.40078 12.1012 -1.14255
head 4.66154 6.01146 -0.280846
rclavicle -5.06901e-015 8.74653e-015
rhumerus 31.6352 -2.69001 0.0866995
rradius 84.2132
rwrist -23.1015
rhand -33.2384 27.8714
rfingers 7.12502
rthumb -6.44434 -2.01054
lclavicle -5.06901e-015 8.74653e-015
lhumerus 42.8604 9.76145 0.225829
lradius 85.2122
lwrist 41.0392
lhand -25.0782 3.25605
lfingers 7.12502
lthumb 1.43603 33.231
rfemur -39.3416 -19.9649 4.89937
rtibia 63.3356
rfoot 14.6139 -3.90401
rtoes 9.03908
lfemur 163.025 157.397 176.605
ltibia 39.3402
lfoot -4.0006 10.7964
ltoes -10.7517
1807
root -26.7106 15.1175 6.53923 -174.037 2.68353 -178.691
lowerback 4.16366 1.47731 -3.22281
upperback -9.17523 2.33104 -0.719009
thorax -12.3262 1.67891 0.610513
lowerneck -14.6638 10.043 6.24398
upperneck 6.51202 12.313 -1.13401
head 4.73892 6.11907 -0.27262
rclavicle -3.19049e-014 -9.54166e-015
rhumerus 31.8939 -4.04127 0.287016
rradius 82.6913
rwrist -25.3666
rhand -32.8534 26.8749
rfingers 7.12502
rthumb -6.07264 -3.01806
lclavicle -3.19049e-014 -9.54166e-015
lhumerus 43.8051 10.8801 0.47669
lradius 83.0411
lwrist 43.9967
lhand -23.8608 4.66349
lfingers 7.12502
lthumb 2.61175 34.6272
rfemur -38.2117 -19.3011 5.18288
rtibia 61.2791
rfoot 15.3457 -3.10308
rtoes 7.31872
lfemur 162.727 157.442 176.94
ltibia 39.1024
lfoot -2.19527 11.4354
ltoes -8.0363
1808
root -26.5463 15.1651 6.50378 -173.847 2.40271 -178.596
lowerback 3.78321 1.3734 -3.42872
upperback -9.26678 2.20835 -0.790064
thorax -12.1976 1.64957 0.675611
lowerneck -14.8168 10.2232 6.45502
upperneck 6.62752 12.499 -1.1025
head 4.81554 6.21647 -0.263703
rclavicle 3.12092e-014 -2.14687e-014
rhumerus 32.0686 -5.28394 0.457114
rradius 81.2248
rwrist -27.7413
rhand -32.4323 25.8271
rfingers 7.12502
rthumb -5.6661 -4.0771
lclavicle 3.12092e-014 -2.14687e-014
lhumerus 44.8012 11.9389 0.845253
lradius 80.9411
lwrist 46.7869
lhand -22.5449 6.08592
lfingers 7.12502
lthumb 3.88256 36.0303
rfemur -37.1887 -18.8545 5.59836
rtibia 59.6535
rfoot 15.4326 -2.41503
rtoes 5.23574
lfemur 162.214 157.358 177.208
ltibia 39.1253
lfoot -0.529856 12.204
ltoes -4.86426
1809
root -26.38 15.2053 6.47106 -173.671 2.07546 -178.511
lowerback 3.44194 1.26771 -3.65842
upperback -9.34963 2.07918 -0.87155
thorax -12.0832 1.61796 0.741414
lowerneck -14.9445 10.3791 6.64381
upperneck 6.72326 12.6538 -1.04004
head 4.87787 6.30031 -0.246754
rclavicle -7.35503e-015 -1.19271e-014
rhumerus 32.166 -6.43216 0.627457
rradius 79.8148
rwrist -30.1707
rhand -31.9553 24.7392
rfingers 7.12502
rthumb -5.20552 -5.17691
lclavicle -7.35503e-015 -1.19271e-014
lhumerus 45.8555 12.9475 1.37023
lradius 78.8987
lwrist 49.3445
lhand -21.1404 7.45724
lfingers 7.12502
lthumb 5.23879 37.3725
rfemur -36.298 -18.6464 6.14027
rtibia 58.4864
rfoot 14.9102 -1.89149
rtoes 2.9349
lfemur 161.517 157.158 177.402
ltibia 39.3837
lfoot 0.917323 13.0688
ltoes -1.322
1810
root -26.213 15.239 6.4411 -173.521 1.70916 -178.442
lowerback 3.15839 1.16094 -3.89937
upperback -9.42164 1.94344 -0.966157
thorax -11.9913 1.58231 0.797628
lowerneck -15.0456 10.518 6.81861
upperneck 6.79563 12.7876 -0.963781
head 4.92637 6.37458 -0.227484
rclavicle 1.98785e-015 -8.74653e-015
rhumerus 32.1969 -7.49183 0.793855
rradius 78.4578
rwrist -32.5793
rhand -31.4389 23.5961
rfingers 7.12502
rthumb -4.70697 -6.33166
lclavicle 1.98785e-015 -8.74653e-015
lhumerus 46.9594 13.9166 2.04415
lradius 76.9036
lwrist 51.6345
lhand -19.602 8.75275
lfingers 7.12502
lthumb 6.724 38.626
rfemur -35.5492 -18.6705 6.78628
rtibia 57.7465
rfoot 13.9158 -1.58054
rtoes 0.610437
lfemur 160.675 156.875 177.518
ltibia 39.8485
lfoot 2.08134 13.9202
ltoes 2.31502
1811
root -26.0466 15.2661 6.41401 -173.408 1.31114 -178.385
lowerback 2.94976 1.05483 -4.13524
upperback -9.48028 1.8026 -1.07151
thorax -11.9288 1.5415 0.837304
lowerneck -15.1086 10.6419 6.97061
upperneck 6.83543 12.9068 -0.876744
head 4.95611 6.44196 -0.206003
rclavicle 6.55989e-015 -1.27222e-014
rhumerus 32.1743 -8.47238 0.952302
rradius 77.148
rwrist -34.8823
rhand -30.8916 22.4294
rfingers 7.12502
rthumb -4.17845 -7.50937
lclavicle 6.55989e-015 -1.27222e-014
lhumerus 48.0985 14.8432 2.85809
lradius 74.962
lwrist 53.6203
lhand -17.9717 9.94394
lfingers 7.12502
lthumb 8.29769 39.761
rfemur -34.9342 -18.8964 7.50634
rtibia 57.3582
rfoot 12.6233 -1.48177
rtoes -1.50798
lfemur 159.738 156.55 177.566
ltibia 40.4853
lfoot 2.91807 14.5424
ltoes 5.66414
